<svg width="210" height="39" viewBox="0 0 210 39" fill="none" xmlns="http://www.w3.org/2000/svg">
<path d="M10.1523 4.25H31.2023L30.4023 8.05H20.1523L18.2023 17.2H26.7523L25.9523 21.05H17.4023L14.2023 36H3.40234L10.1523 4.25ZM58.4129 8.05H50.3629L44.4129 36H33.6129L39.5629 8.05H31.6129L32.5129 4.25H59.2629L58.4129 8.05ZM71.7473 22.3C72.7473 22.3 73.5806 21.8833 74.2473 21.05C74.9473 20.2167 75.5139 19.2 75.9473 18C76.4139 16.8 76.7473 15.55 76.9473 14.25C77.1473 12.95 77.2473 11.8167 77.2473 10.85C77.2473 9.95 77.0973 9.2 76.7973 8.6C76.4973 7.96666 75.8473 7.65 74.8473 7.65H72.5973L69.4473 22.3H71.7473ZM68.7473 25.5L66.4973 36H55.6973L62.4473 4.25H73.9973C75.8973 4.25 77.6306 4.35 79.1973 4.55C80.7639 4.75 82.1139 5.15 83.2473 5.75C84.3806 6.35 85.2639 7.21667 85.8973 8.35C86.5306 9.45 86.8473 10.9333 86.8473 12.8C86.8473 14.5333 86.5639 16.1833 85.9973 17.75C85.4639 19.2833 84.5806 20.6333 83.3473 21.8C82.1473 22.9333 80.5806 23.8333 78.6473 24.5C76.7139 25.1667 74.3639 25.5 71.5973 25.5H68.7473ZM116.328 11.5C116.328 12.4667 116.178 13.3333 115.878 14.1C115.611 14.8667 115.228 15.55 114.728 16.15C114.228 16.75 113.644 17.2833 112.978 17.75C112.311 18.2167 111.578 18.65 110.778 19.05C111.144 19.1833 111.578 19.4 112.078 19.7C112.578 19.9667 113.061 20.35 113.528 20.85C113.994 21.35 114.378 22 114.678 22.8C115.011 23.5667 115.178 24.5167 115.178 25.65C115.178 27.15 114.861 28.5333 114.228 29.8C113.594 31.0667 112.644 32.1667 111.378 33.1C110.144 34 108.611 34.7167 106.778 35.25C104.978 35.75 102.894 36 100.528 36H85.6777L92.4277 4.25H105.578C106.878 4.25 108.161 4.35 109.428 4.55C110.728 4.71667 111.878 5.06667 112.878 5.6C113.911 6.13333 114.744 6.88333 115.378 7.85C116.011 8.78333 116.328 10 116.328 11.5ZM102.728 17.55C103.461 17.55 104.078 17.3333 104.578 16.9C105.111 16.4667 105.544 15.9333 105.878 15.3C106.211 14.6333 106.461 13.9333 106.628 13.2C106.794 12.4333 106.878 11.75 106.878 11.15C106.878 10.1833 106.644 9.36667 106.178 8.7C105.744 8 105.044 7.65 104.078 7.65H102.578L100.428 17.55H102.728ZM99.1277 32.85C100.128 32.85 100.961 32.5667 101.628 32C102.294 31.4333 102.844 30.7333 103.278 29.9C103.711 29.0667 104.011 28.2 104.178 27.3C104.378 26.3667 104.478 25.55 104.478 24.85C104.478 23.6833 104.228 22.7667 103.728 22.1C103.261 21.4 102.494 21.05 101.428 21.05H99.5777L97.1277 32.85H99.1277ZM120.381 16.35C122.081 15.5167 123.815 14.9167 125.581 14.55C127.381 14.15 129.381 13.95 131.581 13.95C133.715 13.95 135.481 14.1167 136.881 14.45C138.281 14.7833 139.398 15.2667 140.231 15.9C141.065 16.5333 141.648 17.2833 141.981 18.15C142.315 19.0167 142.481 20 142.481 21.1C142.481 21.7333 142.431 22.4167 142.331 23.15C142.265 23.8833 142.181 24.5 142.081 25L139.731 36H131.681L130.781 32.8H130.481C129.415 33.9667 128.165 34.8667 126.731 35.5C125.331 36.1 123.931 36.4 122.531 36.4C121.731 36.4 120.948 36.2833 120.181 36.05C119.415 35.8167 118.731 35.4667 118.131 35C117.531 34.5 117.048 33.8833 116.681 33.15C116.315 32.3833 116.131 31.4667 116.131 30.4C116.131 28.6667 116.598 27.3 117.531 26.3C118.498 25.2667 119.748 24.5 121.281 24C122.848 23.4667 124.598 23.1333 126.531 23C128.498 22.8667 130.465 22.8 132.431 22.8C132.498 22.4667 132.581 22 132.681 21.4C132.781 20.7667 132.831 20.2167 132.831 19.75C132.831 19.15 132.665 18.6 132.331 18.1C132.031 17.5667 131.381 17.3 130.381 17.3C129.215 17.3 128.348 17.65 127.781 18.35C127.248 19.0167 126.898 19.8333 126.731 20.8H119.431L120.381 16.35ZM131.881 25.15H130.981C130.015 25.15 129.181 25.2833 128.481 25.55C127.815 25.7833 127.265 26.1 126.831 26.5C126.431 26.9 126.131 27.35 125.931 27.85C125.731 28.35 125.631 28.85 125.631 29.35C125.631 30.15 125.831 30.75 126.231 31.15C126.665 31.55 127.165 31.75 127.731 31.75C128.431 31.75 129.115 31.5 129.781 31C130.481 30.5 130.915 29.8333 131.081 29L131.881 25.15ZM157.769 17.7C158.469 17.0333 159.252 16.4167 160.119 15.85C160.886 15.3833 161.786 14.95 162.819 14.55C163.852 14.15 165.002 13.95 166.269 13.95C168.002 13.95 169.436 14.4 170.569 15.3C171.702 16.1667 172.269 17.3667 172.269 18.9C172.269 19.3333 172.219 19.8667 172.119 20.5C172.019 21.1 171.902 21.7333 171.769 22.4C171.636 23.0667 171.486 23.75 171.319 24.45C171.186 25.1167 171.069 25.7167 170.969 26.25L168.869 36H158.719L161.469 22.95C161.536 22.5167 161.619 22.0833 161.719 21.65C161.819 21.1833 161.869 20.7667 161.869 20.4C161.869 19.9 161.736 19.5 161.469 19.2C161.236 18.8667 160.869 18.7 160.369 18.7C159.769 18.7 159.186 18.9167 158.619 19.35C158.086 19.7833 157.669 20.15 157.369 20.45L154.069 36H143.869L148.419 14.5H156.569L157.469 17.7H157.769ZM186.016 23.6L197.666 14.5H204.266L194.316 22.65L201.766 36H190.566L185.466 25.95L183.366 36H173.166L180.266 2.4H190.516L186.016 23.6Z" fill="#1B3FCF" fill-opacity="0.4"/>
<path d="M10.1523 4.25V2.25H8.53284L8.19606 3.8341L10.1523 4.25ZM31.2023 4.25L33.1594 4.66202L33.6672 2.25H31.2023V4.25ZM30.4023 8.05V10.05H32.0251L32.3594 8.46202L30.4023 8.05ZM20.1523 8.05V6.05H18.5337L18.1963 7.63313L20.1523 8.05ZM18.2023 17.2L16.2463 16.7831L15.7312 19.2H18.2023V17.2ZM26.7523 17.2L28.7105 17.6069L29.2106 15.2H26.7523V17.2ZM25.9523 21.05V23.05H27.5795L27.9105 21.4569L25.9523 21.05ZM17.4023 21.05V19.05H15.7851L15.4466 20.6314L17.4023 21.05ZM14.2023 36V38H15.8196L16.158 36.4186L14.2023 36ZM3.40234 36L1.44607 35.5841L0.932447 38H3.40234V36ZM10.1523 6.25H31.2023V2.25H10.1523V6.25ZM29.2452 3.83798L28.4452 7.63798L32.3594 8.46202L33.1594 4.66202L29.2452 3.83798ZM30.4023 6.05H20.1523V10.05H30.4023V6.05ZM18.1963 7.63313L16.2463 16.7831L20.1584 17.6169L22.1084 8.46687L18.1963 7.63313ZM18.2023 19.2H26.7523V15.2H18.2023V19.2ZM24.7942 16.7931L23.9942 20.6431L27.9105 21.4569L28.7105 17.6069L24.7942 16.7931ZM25.9523 19.05H17.4023V23.05H25.9523V19.05ZM15.4466 20.6314L12.2466 35.5814L16.158 36.4186L19.358 21.4686L15.4466 20.6314ZM14.2023 34H3.40234V38H14.2023V34ZM5.35862 36.4159L12.1086 4.6659L8.19606 3.8341L1.44607 35.5841L5.35862 36.4159ZM58.4129 8.05V10.05H60.0149L60.3647 8.48658L58.4129 8.05ZM50.3629 8.05V6.05H48.7438L48.4067 7.63357L50.3629 8.05ZM44.4129 36V38H46.0319L46.3691 36.4164L44.4129 36ZM33.6129 36L31.6567 35.5836L31.1423 38H33.6129V36ZM39.5629 8.05L41.5191 8.46643L42.0335 6.05H39.5629V8.05ZM31.6129 8.05L29.6667 7.58907L29.0839 10.05H31.6129V8.05ZM32.5129 4.25V2.25H30.9312L30.5667 3.78906L32.5129 4.25ZM59.2629 4.25L61.2147 4.68658L61.7597 2.25H59.2629V4.25ZM58.4129 6.05H50.3629V10.05H58.4129V6.05ZM48.4067 7.63357L42.4567 35.5836L46.3691 36.4164L52.3191 8.46643L48.4067 7.63357ZM44.4129 34H33.6129V38H44.4129V34ZM35.5691 36.4164L41.5191 8.46643L37.6067 7.63357L31.6567 35.5836L35.5691 36.4164ZM39.5629 6.05H31.6129V10.05H39.5629V6.05ZM33.5591 8.51093L34.4591 4.71093L30.5667 3.78906L29.6667 7.58907L33.5591 8.51093ZM32.5129 6.25H59.2629V2.25H32.5129V6.25ZM57.3111 3.81342L56.4611 7.61342L60.3647 8.48658L61.2147 4.68658L57.3111 3.81342ZM74.2473 21.05L72.7159 19.7636L72.7005 19.7819L72.6855 19.8006L74.2473 21.05ZM75.9473 18L74.0833 17.2751L74.0744 17.2978L74.0662 17.3207L75.9473 18ZM76.9473 14.25L74.9705 13.9459V13.9459L76.9473 14.25ZM76.7973 8.6L74.9898 9.45617L74.9989 9.4754L75.0084 9.49442L76.7973 8.6ZM72.5973 7.65V5.65H70.9816L70.642 7.22957L72.5973 7.65ZM69.4473 22.3L67.492 21.8796L66.9715 24.3H69.4473V22.3ZM68.7473 25.5V23.5H67.1304L66.7917 25.0809L68.7473 25.5ZM66.4973 36V38H68.1141L68.4529 36.4191L66.4973 36ZM55.6973 36L53.741 35.5841L53.2274 38H55.6973V36ZM62.4473 4.25V2.25H60.8278L60.491 3.8341L62.4473 4.25ZM79.1973 4.55L78.944 6.5339L79.1973 4.55ZM83.2473 5.75L82.3115 7.51757L83.2473 5.75ZM85.8973 8.35L84.1514 9.32564L84.1576 9.33682L84.164 9.34793L85.8973 8.35ZM85.9973 17.75L84.1165 17.0697L84.1123 17.0813L84.1083 17.093L85.9973 17.75ZM83.3473 21.8L84.7205 23.254L84.7217 23.2529L83.3473 21.8ZM71.7473 24.3C73.4003 24.3 74.7921 23.5705 75.809 22.2994L72.6855 19.8006C72.3691 20.1962 72.0942 20.3 71.7473 20.3V24.3ZM75.7787 22.3364C76.6537 21.2947 77.3286 20.0633 77.8284 18.6793L74.0662 17.3207C73.6993 18.3367 73.2409 19.1386 72.7159 19.7636L75.7787 22.3364ZM77.8113 18.7249C78.3319 17.3862 78.7023 15.9949 78.924 14.5541L74.9705 13.9459C74.7922 15.1051 74.496 16.2137 74.0833 17.2751L77.8113 18.7249ZM78.924 14.5541C79.1344 13.1867 79.2473 11.9473 79.2473 10.85H75.2473C75.2473 11.686 75.1602 12.7133 74.9705 13.9459L78.924 14.5541ZM79.2473 10.85C79.2473 9.7407 79.0641 8.66149 78.5861 7.70557L75.0084 9.49442C75.1305 9.73851 75.2473 10.1593 75.2473 10.85H79.2473ZM78.6047 7.74382C77.8375 6.12411 76.2404 5.65 74.8473 5.65V9.65C74.9939 9.65 75.0935 9.66178 75.1547 9.67353C75.2152 9.68515 75.2277 9.69468 75.2088 9.68548C75.1871 9.6749 75.1421 9.64829 75.0924 9.59859C75.0421 9.5483 75.0086 9.49596 74.9898 9.45617L78.6047 7.74382ZM74.8473 5.65H72.5973V9.65H74.8473V5.65ZM70.642 7.22957L67.492 21.8796L71.4026 22.7204L74.5526 8.07042L70.642 7.22957ZM69.4473 24.3H71.7473V20.3H69.4473V24.3ZM66.7917 25.0809L64.5417 35.5809L68.4529 36.4191L70.7029 25.9191L66.7917 25.0809ZM66.4973 34H55.6973V38H66.4973V34ZM57.6535 36.4159L64.4035 4.6659L60.491 3.8341L53.741 35.5841L57.6535 36.4159ZM62.4473 6.25H73.9973V2.25H62.4473V6.25ZM73.9973 6.25C75.829 6.25 77.4761 6.34651 78.944 6.5339L79.4505 2.5661C77.7851 2.35349 75.9656 2.25 73.9973 2.25V6.25ZM78.944 6.5339C80.3254 6.71025 81.4337 7.05285 82.3115 7.51757L84.183 3.98242C82.7942 3.24715 81.2025 2.78975 79.4505 2.5661L78.944 6.5339ZM82.3115 7.51757C83.0996 7.93483 83.7036 8.52441 84.1514 9.32564L87.6432 7.37436C86.8242 5.90892 85.6616 4.76517 84.183 3.98242L82.3115 7.51757ZM84.164 9.34793C84.5592 10.0343 84.8473 11.1299 84.8473 12.8H88.8473C88.8473 10.7368 88.502 8.86568 87.6305 7.35207L84.164 9.34793ZM84.8473 12.8C84.8473 14.3109 84.6011 15.7299 84.1165 17.0697L87.878 18.4303C88.5267 16.6367 88.8473 14.7558 88.8473 12.8H84.8473ZM84.1083 17.093C83.6851 18.3096 82.9844 19.3902 81.9729 20.3471L84.7217 23.2529C86.1768 21.8764 87.2428 20.257 87.8863 18.407L84.1083 17.093ZM81.974 20.346C81.0239 21.2433 79.7224 22.0137 77.9953 22.6093L79.2992 26.3907C81.4388 25.653 83.2707 24.6233 84.7205 23.254L81.974 20.346ZM77.9953 22.6093C76.3311 23.1831 74.2151 23.5 71.5973 23.5V27.5C74.5128 27.5 77.0967 27.1502 79.2992 26.3907L77.9953 22.6093ZM71.5973 23.5H68.7473V27.5H71.5973V23.5ZM115.878 14.1L114.015 13.3712L114.001 13.4068L113.989 13.443L115.878 14.1ZM112.978 17.75L111.831 16.1115V16.1115L112.978 17.75ZM110.778 19.05L109.883 17.2611L105.724 19.3406L110.094 20.9296L110.778 19.05ZM112.078 19.7L111.049 21.415L111.092 21.441L111.137 21.4647L112.078 19.7ZM113.528 20.85L112.066 22.2146V22.2146L113.528 20.85ZM114.678 22.8L112.805 23.5022L112.823 23.5503L112.844 23.5975L114.678 22.8ZM114.228 29.8L112.439 28.9056L114.228 29.8ZM111.378 33.1L112.557 34.7156L112.564 34.7101L111.378 33.1ZM106.778 35.25L107.313 37.177L107.325 37.1738L107.336 37.1704L106.778 35.25ZM85.6777 36L83.7215 35.5841L83.2078 38H85.6777V36ZM92.4277 4.25V2.25H90.8082L90.4715 3.8341L92.4277 4.25ZM109.428 4.55L109.116 6.52553L109.145 6.53006L109.173 6.53376L109.428 4.55ZM112.878 5.6L111.937 7.3647L111.948 7.37105L111.96 7.37724L112.878 5.6ZM115.378 7.85L113.705 8.94605L113.714 8.9596L113.723 8.973L115.378 7.85ZM104.578 16.9L103.317 15.3478L103.292 15.3678L103.268 15.3886L104.578 16.9ZM105.878 15.3L107.648 16.2315L107.657 16.2131L107.667 16.1944L105.878 15.3ZM106.628 13.2L108.578 13.6432L108.58 13.6341L108.582 13.6249L106.628 13.2ZM106.178 8.7L104.477 9.75271L104.507 9.80069L104.539 9.84693L106.178 8.7ZM102.578 7.65V5.65H100.965L100.623 7.22555L102.578 7.65ZM100.428 17.55L98.4733 17.1255L97.9468 19.55H100.428V17.55ZM101.628 32L100.332 30.4761L101.628 32ZM103.278 29.9L105.052 30.8227L103.278 29.9ZM104.178 27.3L102.222 26.8809L102.216 26.9083L102.211 26.9358L104.178 27.3ZM103.728 22.1L102.064 23.2094L102.094 23.2556L102.128 23.3L103.728 22.1ZM99.5777 21.05V19.05H97.9503L97.6195 20.6434L99.5777 21.05ZM97.1277 32.85L95.1695 32.4434L94.6698 34.85H97.1277V32.85ZM114.328 11.5C114.328 12.2599 114.21 12.8734 114.015 13.3712L117.74 14.8288C118.145 13.7932 118.328 12.6734 118.328 11.5H114.328ZM113.989 13.443C113.798 13.9914 113.531 14.4617 113.191 14.8696L116.264 17.4304C116.924 16.6383 117.424 15.7419 117.767 14.757L113.989 13.443ZM113.191 14.8696C112.809 15.3279 112.358 15.7422 111.831 16.1115L114.125 19.3885C114.93 18.8245 115.646 18.1721 116.264 17.4304L113.191 14.8696ZM111.831 16.1115C111.252 16.5167 110.604 16.9008 109.883 17.2611L111.672 20.8389C112.551 20.3992 113.37 19.9166 114.125 19.3885L111.831 16.1115ZM110.094 20.9296C110.298 21.0035 110.61 21.1519 111.049 21.415L113.107 17.985C112.545 17.6481 111.991 17.3632 111.461 17.1704L110.094 20.9296ZM111.137 21.4647C111.407 21.6087 111.719 21.8435 112.066 22.2146L114.99 19.4854C114.403 18.8565 113.749 18.3246 113.019 17.9353L111.137 21.4647ZM112.066 22.2146C112.315 22.4816 112.575 22.8887 112.805 23.5022L116.55 22.0978C116.18 21.1113 115.674 20.2184 114.99 19.4854L112.066 22.2146ZM112.844 23.5975C113.036 24.04 113.178 24.6991 113.178 25.65H117.178C117.178 24.3342 116.986 23.0933 116.512 22.0025L112.844 23.5975ZM113.178 25.65C113.178 26.8584 112.925 27.933 112.439 28.9056L116.017 30.6944C116.797 29.1337 117.178 27.4416 117.178 25.65H113.178ZM112.439 28.9056C111.962 29.8592 111.232 30.723 110.191 31.4899L112.564 34.7101C114.057 33.6103 115.227 32.2741 116.017 30.6944L112.439 28.9056ZM110.199 31.4844C109.193 32.2182 107.883 32.8455 106.219 33.3296L107.336 37.1704C109.339 36.5878 111.096 35.7818 112.557 34.7156L110.199 31.4844ZM106.242 33.323C104.656 33.7637 102.759 34 100.528 34V38C103.03 38 105.3 37.7363 107.313 37.177L106.242 33.323ZM100.528 34H85.6777V38H100.528V34ZM87.634 36.4159L94.384 4.6659L90.4715 3.8341L83.7215 35.5841L87.634 36.4159ZM92.4277 6.25H105.578V2.25H92.4277V6.25ZM105.578 6.25C106.775 6.25 107.954 6.34204 109.116 6.52553L109.74 2.57447C108.368 2.35796 106.981 2.25 105.578 2.25V6.25ZM109.173 6.53376C110.27 6.67437 111.181 6.96174 111.937 7.3647L113.819 3.83529C112.574 3.17159 111.185 2.75897 109.682 2.56624L109.173 6.53376ZM111.96 7.37724C112.689 7.75347 113.262 8.26966 113.705 8.94605L117.051 6.75395C116.227 5.497 115.133 4.51319 113.795 3.82276L111.96 7.37724ZM113.723 8.973C114.068 9.48176 114.328 10.2706 114.328 11.5H118.328C118.328 9.72939 117.954 8.08491 117.033 6.727L113.723 8.973ZM102.728 19.55C103.886 19.55 104.984 19.1947 105.888 18.4114L103.268 15.3886C103.172 15.472 103.036 15.55 102.728 15.55V19.55ZM105.839 18.4522C106.591 17.8414 107.194 17.0938 107.648 16.2315L104.108 14.3685C103.895 14.7728 103.631 15.0919 103.317 15.3478L105.839 18.4522ZM107.667 16.1944C108.072 15.3831 108.376 14.5315 108.578 13.6432L104.677 12.7568C104.546 13.3352 104.35 13.8836 104.089 14.4056L107.667 16.1944ZM108.582 13.6249C108.77 12.7586 108.878 11.9287 108.878 11.15H104.878C104.878 11.5713 104.818 12.108 104.673 12.7751L108.582 13.6249ZM108.878 11.15C108.878 9.8519 108.56 8.61523 107.816 7.55307L104.539 9.84693C104.729 10.1181 104.878 10.5148 104.878 11.15H108.878ZM107.878 7.64729C107.012 6.24729 105.596 5.65 104.078 5.65V9.65C104.322 9.65 104.419 9.69403 104.433 9.70135C104.441 9.70528 104.443 9.70691 104.443 9.70775C104.445 9.70907 104.457 9.72054 104.477 9.75271L107.878 7.64729ZM104.078 5.65H102.578V9.65H104.078V5.65ZM100.623 7.22555L98.4733 17.1255L102.382 17.9744L104.532 8.07445L100.623 7.22555ZM100.428 19.55H102.728V15.55H100.428V19.55ZM99.1277 34.85C100.53 34.85 101.843 34.4415 102.923 33.5239L100.332 30.4761C100.079 30.6918 99.7251 30.85 99.1277 30.85V34.85ZM102.923 33.5239C103.801 32.7777 104.508 31.8685 105.052 30.8227L101.503 28.9773C101.18 29.5982 100.788 30.089 100.332 30.4761L102.923 33.5239ZM105.052 30.8227C105.574 29.8184 105.941 28.7639 106.144 27.6642L102.211 26.9358C102.081 27.6361 101.848 28.315 101.503 28.9773L105.052 30.8227ZM106.133 27.7191C106.353 26.694 106.478 25.7312 106.478 24.85H102.478C102.478 25.3688 102.402 26.0393 102.222 26.8809L106.133 27.7191ZM106.478 24.85C106.478 23.4195 106.173 22.0272 105.328 20.9L102.128 23.3C102.282 23.5061 102.478 23.9472 102.478 24.85H106.478ZM105.392 20.9906C104.455 19.5848 102.961 19.05 101.428 19.05V23.05C101.748 23.05 101.909 23.1031 101.972 23.1319C102.018 23.1526 102.037 23.1696 102.064 23.2094L105.392 20.9906ZM101.428 19.05H99.5777V23.05H101.428V19.05ZM97.6195 20.6434L95.1695 32.4434L99.086 33.2566L101.536 21.4566L97.6195 20.6434ZM97.1277 34.85H99.1277V30.85H97.1277V34.85ZM120.381 16.35L119.501 14.5542L118.628 14.982L118.425 15.9324L120.381 16.35ZM125.581 14.55L125.988 16.5083L126.001 16.5054L126.015 16.5024L125.581 14.55ZM136.881 14.45L136.418 16.3956L136.881 14.45ZM140.231 15.9L139.021 17.4923V17.4923L140.231 15.9ZM142.331 23.15L140.35 22.8798L140.344 22.9242L140.339 22.9689L142.331 23.15ZM142.081 25L144.037 25.4178L144.04 25.4051L144.042 25.3922L142.081 25ZM139.731 36V38H141.349L141.687 36.4178L139.731 36ZM131.681 36L129.756 36.5415L130.166 38H131.681V36ZM130.781 32.8L132.707 32.2585L132.296 30.8H130.781V32.8ZM130.481 32.8V30.8H129.6L129.005 31.4505L130.481 32.8ZM126.731 35.5L127.519 37.3383L127.529 37.3339L127.54 37.3294L126.731 35.5ZM120.181 36.05L120.764 34.1367L120.181 36.05ZM118.131 35L116.851 36.5364L116.877 36.558L116.903 36.5787L118.131 35ZM116.681 33.15L114.877 34.0129L114.885 34.0287L114.892 34.0444L116.681 33.15ZM117.531 26.3L116.071 24.9337L116.069 24.9354L117.531 26.3ZM121.281 24L121.901 25.9015L121.914 25.8975L121.926 25.8933L121.281 24ZM126.531 23L126.396 21.0046L126.394 21.0047L126.531 23ZM132.431 22.8V24.8H134.071L134.392 23.1922L132.431 22.8ZM132.681 21.4L134.654 21.7288L134.655 21.7204L134.657 21.7119L132.681 21.4ZM132.331 18.1L130.588 19.0805L130.625 19.1465L130.667 19.2094L132.331 18.1ZM127.781 18.35L126.227 17.0916L126.22 17.1006L127.781 18.35ZM126.731 20.8V22.8H128.416L128.702 21.1398L126.731 20.8ZM119.431 20.8L117.475 20.3824L116.959 22.8H119.431V20.8ZM131.881 25.15L133.839 25.5569L134.34 23.15H131.881V25.15ZM128.481 25.55L129.142 27.4377L129.168 27.4287L129.193 27.419L128.481 25.55ZM126.831 26.5L125.475 25.0304L125.445 25.0575L125.417 25.0858L126.831 26.5ZM125.931 27.85L127.788 28.5928L125.931 27.85ZM126.231 31.15L124.817 32.5642L124.845 32.5925L124.875 32.6196L126.231 31.15ZM129.781 31L128.619 29.3725L128.6 29.386L128.581 29.4L129.781 31ZM131.081 29L129.123 28.5931L129.122 28.6004L129.12 28.6078L131.081 29ZM121.262 18.1458C122.818 17.3827 124.393 16.8392 125.988 16.5083L125.175 12.5917C123.236 12.9941 121.344 13.6507 119.501 14.5542L121.262 18.1458ZM126.015 16.5024C127.648 16.1394 129.5 15.95 131.581 15.95V11.95C129.262 11.95 127.114 12.1606 125.147 12.5976L126.015 16.5024ZM131.581 15.95C133.626 15.95 135.224 16.1112 136.418 16.3956L137.344 12.5044C135.739 12.1221 133.803 11.95 131.581 11.95V15.95ZM136.418 16.3956C137.642 16.6871 138.476 17.0781 139.021 17.4923L141.441 14.3077C140.32 13.4553 138.92 12.8795 137.344 12.5044L136.418 16.3956ZM139.021 17.4923C139.597 17.9302 139.931 18.3907 140.115 18.868L143.848 17.432C143.365 16.1759 142.532 15.1365 141.441 14.3077L139.021 17.4923ZM140.115 18.868C140.345 19.4675 140.481 20.2011 140.481 21.1H144.481C144.481 19.7989 144.284 18.5659 143.848 17.432L140.115 18.868ZM140.481 21.1C140.481 21.6294 140.439 22.2215 140.35 22.8798L144.313 23.4202C144.423 22.6119 144.481 21.8373 144.481 21.1H140.481ZM140.339 22.9689C140.277 23.6595 140.202 24.2007 140.12 24.6078L144.042 25.3922C144.161 24.7993 144.252 24.1071 144.323 23.3311L140.339 22.9689ZM140.125 24.5822L137.775 35.5822L141.687 36.4178L144.037 25.4178L140.125 24.5822ZM139.731 34H131.681V38H139.731V34ZM133.607 35.4585L132.707 32.2585L128.856 33.3415L129.756 36.5415L133.607 35.4585ZM130.781 30.8H130.481V34.8H130.781V30.8ZM129.005 31.4505C128.124 32.4145 127.101 33.1503 125.923 33.6706L127.54 37.3294C129.229 36.5831 130.705 35.5188 131.957 34.1495L129.005 31.4505ZM125.943 33.6617C124.77 34.1645 123.637 34.4 122.531 34.4V38.4C124.225 38.4 125.892 38.0355 127.519 37.3383L125.943 33.6617ZM122.531 34.4C121.929 34.4 121.342 34.3126 120.764 34.1367L119.599 37.9633C120.554 38.254 121.534 38.4 122.531 38.4V34.4ZM120.764 34.1367C120.218 33.9706 119.756 33.7299 119.359 33.4213L116.903 36.5787C117.707 37.2035 118.611 37.6628 119.599 37.9633L120.764 34.1367ZM119.412 33.4636C119.034 33.1489 118.72 32.7546 118.47 32.2556L114.892 34.0444C115.376 35.012 116.028 35.8511 116.851 36.5364L119.412 33.4636ZM118.486 32.2871C118.276 31.8495 118.131 31.2421 118.131 30.4H114.131C114.131 31.6912 114.353 32.9171 114.877 34.0129L118.486 32.2871ZM118.131 30.4C118.131 29.0324 118.491 28.2028 118.993 27.6646L116.069 24.9354C114.705 26.3972 114.131 28.3009 114.131 30.4H118.131ZM118.992 27.6663C119.697 26.9121 120.643 26.3117 121.901 25.9015L120.661 22.0985C118.852 22.6883 117.298 23.6212 116.071 24.9337L118.992 27.6663ZM121.926 25.8933C123.303 25.4243 124.88 25.1187 126.669 24.9953L126.394 21.0047C124.316 21.148 122.392 21.509 120.637 22.1067L121.926 25.8933ZM126.667 24.9954C128.588 24.8651 130.51 24.8 132.431 24.8V20.8C130.419 20.8 128.408 20.8682 126.396 21.0046L126.667 24.9954ZM134.392 23.1922C134.465 22.8276 134.553 22.3363 134.654 21.7288L130.708 21.0712C130.61 21.6637 130.53 22.1058 130.47 22.4078L134.392 23.1922ZM134.657 21.7119C134.768 21.0106 134.831 20.3516 134.831 19.75H130.831C130.831 20.0818 130.795 20.5227 130.706 21.0881L134.657 21.7119ZM134.831 19.75C134.831 18.7545 134.547 17.8186 133.995 16.9906L130.667 19.2094C130.782 19.3814 130.831 19.5455 130.831 19.75H134.831ZM134.074 17.1195C133.234 15.6259 131.621 15.3 130.381 15.3V19.3C130.544 19.3 130.664 19.311 130.747 19.3244C130.829 19.3378 130.862 19.3514 130.86 19.3503C130.855 19.3484 130.812 19.3297 130.752 19.2798C130.691 19.2278 130.632 19.1592 130.588 19.0805L134.074 17.1195ZM130.381 15.3C128.804 15.3 127.28 15.7908 126.227 17.0916L129.336 19.6084C129.416 19.5092 129.625 19.3 130.381 19.3V15.3ZM126.22 17.1006C125.446 18.0681 124.976 19.2107 124.76 20.4602L128.702 21.1398C128.82 20.4559 129.05 19.9652 129.343 19.5994L126.22 17.1006ZM126.731 18.8H119.431V22.8H126.731V18.8ZM121.387 21.2176L122.337 16.7676L118.425 15.9324L117.475 20.3824L121.387 21.2176ZM131.881 23.15H130.981V27.15H131.881V23.15ZM130.981 23.15C129.839 23.15 128.752 23.3066 127.769 23.681L129.193 27.419C129.61 27.26 130.191 27.15 130.981 27.15V23.15ZM127.821 23.6623C126.946 23.9684 126.145 24.412 125.475 25.0304L128.188 27.9696C128.385 27.788 128.683 27.5982 129.142 27.4377L127.821 23.6623ZM125.417 25.0858C124.835 25.6675 124.38 26.3431 124.074 27.1072L127.788 28.5928C127.883 28.3569 128.027 28.1325 128.245 27.9142L125.417 25.0858ZM124.074 27.1072C123.787 27.8251 123.631 28.5765 123.631 29.35H127.631C127.631 29.1235 127.675 28.8749 127.788 28.5928L124.074 27.1072ZM123.631 29.35C123.631 30.4583 123.91 31.6569 124.817 32.5642L127.645 29.7358C127.69 29.7801 127.692 29.8081 127.679 29.7675C127.662 29.7173 127.631 29.5893 127.631 29.35H123.631ZM124.875 32.6196C125.661 33.3453 126.64 33.75 127.731 33.75V29.75C127.708 29.75 127.694 29.748 127.687 29.7468C127.681 29.7456 127.677 29.7443 127.674 29.743C127.671 29.7419 127.642 29.7307 127.588 29.6804L124.875 32.6196ZM127.731 33.75C128.942 33.75 130.036 33.3087 130.981 32.6L128.581 29.4C128.193 29.6913 127.921 29.75 127.731 29.75V33.75ZM130.944 32.6275C132.052 31.8361 132.775 30.7306 133.042 29.3922L129.12 28.6078C129.054 28.9361 128.911 29.1639 128.619 29.3725L130.944 32.6275ZM133.039 29.4069L133.839 25.5569L129.923 24.7431L129.123 28.5931L133.039 29.4069ZM157.769 17.7V19.7H158.569L159.148 19.1483L157.769 17.7ZM160.119 15.85L159.079 14.1416L159.052 14.1584L159.025 14.1761L160.119 15.85ZM170.569 15.3L169.325 16.8662L169.34 16.8776L169.354 16.8887L170.569 15.3ZM172.119 20.5L174.092 20.8288L174.093 20.8204L174.095 20.8119L172.119 20.5ZM171.319 24.45L169.374 23.9868L169.365 24.0221L169.358 24.0578L171.319 24.45ZM170.969 26.25L172.924 26.6711L172.93 26.6449L172.935 26.6186L170.969 26.25ZM168.869 36V38H170.484L170.824 36.4211L168.869 36ZM158.719 36L156.762 35.5876L156.254 38H158.719V36ZM161.469 22.95L163.426 23.3624L163.438 23.3085L163.446 23.2541L161.469 22.95ZM161.719 21.65L163.668 22.0997L163.671 22.0844L163.675 22.0691L161.719 21.65ZM161.469 19.2L159.831 20.3469L159.897 20.442L159.974 20.5287L161.469 19.2ZM158.619 19.35L157.404 17.7613L157.381 17.7792L157.358 17.7978L158.619 19.35ZM157.369 20.45L155.955 19.0358L155.536 19.4549L155.413 20.0348L157.369 20.45ZM154.069 36V38H155.689L156.026 36.4152L154.069 36ZM143.869 36L141.912 35.5859L141.402 38H143.869V36ZM148.419 14.5V12.5H146.798L146.462 14.0859L148.419 14.5ZM156.569 14.5L158.494 13.9585L158.084 12.5H156.569V14.5ZM157.469 17.7L155.544 18.2415L155.954 19.7H157.469V17.7ZM159.148 19.1483C159.755 18.571 160.441 18.0289 161.214 17.5239L159.025 14.1761C158.064 14.8045 157.184 15.4957 156.39 16.2517L159.148 19.1483ZM161.159 17.5584C161.804 17.1656 162.594 16.7819 163.541 16.4151L162.097 12.6849C160.978 13.1181 159.967 13.6011 159.079 14.1416L161.159 17.5584ZM163.541 16.4151C164.314 16.1161 165.214 15.95 166.269 15.95V11.95C164.791 11.95 163.391 12.1839 162.097 12.6849L163.541 16.4151ZM166.269 15.95C167.643 15.95 168.612 16.2997 169.325 16.8662L171.813 13.7338C170.26 12.5003 168.362 11.95 166.269 11.95V15.95ZM169.354 16.8887C169.951 17.3454 170.269 17.9357 170.269 18.9H174.269C174.269 16.7976 173.454 14.9879 171.784 13.7113L169.354 16.8887ZM170.269 18.9C170.269 19.1922 170.234 19.6139 170.144 20.1881L174.095 20.8119C174.204 20.1194 174.269 19.4745 174.269 18.9H170.269ZM170.146 20.1712C170.05 20.7477 169.938 21.3598 169.808 22.0078L173.73 22.7922C173.867 22.1069 173.988 21.4523 174.092 20.8288L170.146 20.1712ZM169.808 22.0078C169.68 22.6493 169.535 23.309 169.374 23.9868L173.265 24.9132C173.437 24.191 173.592 23.484 173.73 22.7922L169.808 22.0078ZM169.358 24.0578C169.223 24.7304 169.105 25.3385 169.003 25.8814L172.935 26.6186C173.033 26.0948 173.148 25.5029 173.28 24.8422L169.358 24.0578ZM169.014 25.8289L166.914 35.5789L170.824 36.4211L172.924 26.6711L169.014 25.8289ZM168.869 34H158.719V38H168.869V34ZM160.676 36.4124L163.426 23.3624L159.512 22.5376L156.762 35.5876L160.676 36.4124ZM163.446 23.2541C163.505 22.8703 163.579 22.4856 163.668 22.0997L159.77 21.2003C159.659 21.6811 159.567 22.163 159.492 22.6459L163.446 23.2541ZM163.675 22.0691C163.796 21.5034 163.869 20.9423 163.869 20.4H159.869C159.869 20.591 159.842 20.8632 159.764 21.2309L163.675 22.0691ZM163.869 20.4C163.869 19.5352 163.631 18.6211 162.964 17.8713L159.974 20.5287C159.949 20.4998 159.926 20.4682 159.908 20.436C159.889 20.4041 159.878 20.3767 159.872 20.3575C159.859 20.3197 159.869 20.3261 159.869 20.4H163.869ZM163.108 18.0531C162.413 17.0604 161.353 16.7 160.369 16.7V20.7C160.401 20.7 160.323 20.7055 160.192 20.6457C160.046 20.5794 159.917 20.4702 159.831 20.3469L163.108 18.0531ZM160.369 16.7C159.251 16.7 158.252 17.1133 157.404 17.7613L159.834 20.9387C160.12 20.72 160.287 20.7 160.369 20.7V16.7ZM157.358 17.7978C156.8 18.2515 156.324 18.6669 155.955 19.0358L158.783 21.8642C159.014 21.6331 159.372 21.3152 159.88 20.9022L157.358 17.7978ZM155.413 20.0348L152.113 35.5848L156.026 36.4152L159.326 20.8652L155.413 20.0348ZM154.069 34H143.869V38H154.069V34ZM145.826 36.4141L150.376 14.9141L146.462 14.0859L141.912 35.5859L145.826 36.4141ZM148.419 16.5H156.569V12.5H148.419V16.5ZM154.644 15.0415L155.544 18.2415L159.394 17.1585L158.494 13.9585L154.644 15.0415ZM157.469 19.7H157.769V15.7H157.469V19.7ZM186.016 23.6L184.06 23.1847L182.919 28.5567L187.247 25.1762L186.016 23.6ZM197.666 14.5V12.5H196.977L196.435 12.9238L197.666 14.5ZM204.266 14.5L205.533 16.0472L209.864 12.5H204.266V14.5ZM194.316 22.65L193.049 21.1028L191.754 22.1632L192.57 23.6246L194.316 22.65ZM201.766 36V38H205.172L203.512 35.0254L201.766 36ZM190.566 36L188.783 36.9051L189.338 38H190.566V36ZM185.466 25.95L187.25 25.0449L184.673 19.9675L183.508 25.5409L185.466 25.95ZM183.366 36V38H184.991L185.324 36.4091L183.366 36ZM173.166 36L171.209 35.5865L170.699 38H173.166V36ZM180.266 2.4V0.399998H178.644L178.309 1.98651L180.266 2.4ZM190.516 2.4L192.472 2.81527L192.985 0.399998H190.516V2.4ZM187.247 25.1762L198.897 16.0762L196.435 12.9238L184.785 22.0238L187.247 25.1762ZM197.666 16.5H204.266V12.5H197.666V16.5ZM202.999 12.9528L193.049 21.1028L195.583 24.1972L205.533 16.0472L202.999 12.9528ZM192.57 23.6246L200.02 36.9746L203.512 35.0254L196.062 21.6754L192.57 23.6246ZM201.766 34H190.566V38H201.766V34ZM192.35 35.0949L187.25 25.0449L183.683 26.8551L188.783 36.9051L192.35 35.0949ZM183.508 25.5409L181.408 35.5909L185.324 36.4091L187.424 26.3591L183.508 25.5409ZM183.366 34H173.166V38H183.366V34ZM175.123 36.4135L182.223 2.81349L178.309 1.98651L171.209 35.5865L175.123 36.4135ZM180.266 4.4H190.516V0.399998H180.266V4.4ZM188.56 1.98472L184.06 23.1847L187.972 24.0153L192.472 2.81527L188.56 1.98472Z" fill="#2CBEF8"/>
</svg>
